<?xml version="1.0" encoding="utf-8"?>
<!-- Generator: Adobe Illustrator 16.0.0, SVG Export Plug-In . SVG Version: 6.00 Build 0)  -->
<!DOCTYPE svg PUBLIC "-//W3C//DTD SVG 1.1//EN" "http://www.w3.org/Graphics/SVG/1.1/DTD/svg11.dtd" [
	<!ENTITY ns_extend "http://ns.adobe.com/Extensibility/1.0/">
	<!ENTITY ns_ai "http://ns.adobe.com/AdobeIllustrator/10.0/">
	<!ENTITY ns_graphs "http://ns.adobe.com/Graphs/1.0/">
	<!ENTITY ns_vars "http://ns.adobe.com/Variables/1.0/">
	<!ENTITY ns_imrep "http://ns.adobe.com/ImageReplacement/1.0/">
	<!ENTITY ns_sfw "http://ns.adobe.com/SaveForWeb/1.0/">
	<!ENTITY ns_custom "http://ns.adobe.com/GenericCustomNamespace/1.0/">
	<!ENTITY ns_adobe_xpath "http://ns.adobe.com/XPath/1.0/">
]>
<svg version="1.1" xmlns:x="&ns_extend;" xmlns:i="&ns_ai;" xmlns:graph="&ns_graphs;"
	 xmlns="http://www.w3.org/2000/svg" xmlns:xlink="http://www.w3.org/1999/xlink" x="0px" y="0px" width="300px" height="300px"
	 viewBox="0 0 300 300" enable-background="new 0 0 300 300" xml:space="preserve">

			<g style="fill: #FFF;" >
				<path d="M198.428,101.572c0-27.095-22.045-49.141-49.144-49.141c-27.096,0-49.141,22.045-49.141,49.141
					c0,27.098,22.045,49.144,49.141,49.144C176.383,150.716,198.428,128.67,198.428,101.572z M113.263,101.572
					c0-19.862,16.159-36.021,36.021-36.021c19.865,0,36.023,16.159,36.023,36.021c0,19.865-16.158,36.024-36.023,36.024
					C129.422,137.596,113.263,121.437,113.263,101.572z"/>
				<path d="M144.165,254.006c1.246,1.553,3.129,2.457,5.12,2.457c1.991,0,3.875-0.904,5.12-2.457
					c0.207-0.26,21.074-26.361,41.648-57.713c28.105-42.83,42.358-74.794,42.358-95.007c0-49.144-39.983-89.124-89.127-89.124
					s-89.124,39.98-89.124,89.124c0,20.213,14.25,52.177,42.358,95.007C123.093,227.645,143.957,253.746,144.165,254.006z
					 M149.284,25.281c41.91,0,76.006,34.094,76.006,76.004c0,33.066-50.806,105.482-76.006,138.011
					c-25.202-32.525-76.003-104.93-76.003-138.011C73.281,59.375,107.375,25.281,149.284,25.281z"/>
				<path d="M286.353,278.344l-39.36-78.721c-1.111-2.221-3.382-3.625-5.867-3.625h-25.664c-3.623,0-6.56,2.938-6.56,6.561
					s2.937,6.559,6.56,6.559h21.61l32.8,65.6H28.698l32.8-65.6h21.609c3.624,0,6.561-2.936,6.561-6.559s-2.937-6.561-6.561-6.561
					H57.444c-2.485,0-4.756,1.404-5.868,3.625l-39.36,78.721c-1.018,2.035-0.908,4.449,0.287,6.383
					c1.196,1.936,3.309,3.111,5.581,3.111h262.4c2.272,0,4.385-1.176,5.581-3.111C287.259,282.793,287.37,280.379,286.353,278.344z"
					/>
			</g>
</svg>
