<?xml version="1.0" encoding="utf-8"?>
<!-- Generator: Adobe Illustrator 16.0.0, SVG Export Plug-In . SVG Version: 6.00 Build 0)  -->
<!DOCTYPE svg PUBLIC "-//W3C//DTD SVG 1.1//EN" "http://www.w3.org/Graphics/SVG/1.1/DTD/svg11.dtd" [
	<!ENTITY ns_extend "http://ns.adobe.com/Extensibility/1.0/">
	<!ENTITY ns_ai "http://ns.adobe.com/AdobeIllustrator/10.0/">
	<!ENTITY ns_graphs "http://ns.adobe.com/Graphs/1.0/">
	<!ENTITY ns_vars "http://ns.adobe.com/Variables/1.0/">
	<!ENTITY ns_imrep "http://ns.adobe.com/ImageReplacement/1.0/">
	<!ENTITY ns_sfw "http://ns.adobe.com/SaveForWeb/1.0/">
	<!ENTITY ns_custom "http://ns.adobe.com/GenericCustomNamespace/1.0/">
	<!ENTITY ns_adobe_xpath "http://ns.adobe.com/XPath/1.0/">
]>
<svg version="1.1" xmlns:x="&ns_extend;" xmlns:i="&ns_ai;" xmlns:graph="&ns_graphs;"
	 xmlns="http://www.w3.org/2000/svg" xmlns:xlink="http://www.w3.org/1999/xlink" x="0px" y="0px" width="300px" height="300px"
	 viewBox="0 0 300 300" enable-background="new 0 0 300 300" xml:space="preserve">

	<g i:extraneous="self">
		<g id="Layer_4">
			<g>
				<g>
					<path fill-rule="evenodd" clip-rule="evenodd" fill="#363F44" d="M68.82,273.891c0,1.023,0.084,2.01,0.244,2.955H62.59
						c-0.537,2.611-1.611,4.566-4.45,4.566c-3.953,0-5.219-3.838-5.219-7.521s1.266-7.52,5.219-7.52
						c3.491,0,4.221,3.031,4.412,4.027h6.614C68.938,271.506,68.82,272.674,68.82,273.891L68.82,273.891z M70.199,280.576
						c2.142,4.689,6.64,7.666,12.511,7.666c6.065,0,10.663-3.176,12.715-8.135v7.482h7.98v-14.965h0.078l8.403,14.965h8.212v-20.375
						h6.037v20.375h8.441v-20.375h6h1.675h6.767v-7.021h-6.767h-1.675h-20.479h-1.638h-6.345v14.658h-0.076l-7.981-14.658h-8.634
						v7.48c-2.052-4.957-6.649-8.133-12.715-8.133c-5.915,0-10.437,3.021-12.558,7.771c-1.523-4.975-5.436-7.74-11.783-7.771
						c-8.441,0-13.891,5.756-13.891,14.35c0,8.098,5.026,14.352,13.891,14.352C64.575,288.242,68.666,284.727,70.199,280.576
						L70.199,280.576z M140.577,287.59v-16.605h8.441v16.605H140.577L140.577,287.59z M77.262,273.891c0-6.1,3.3-7.52,5.448-7.52
						c2.149,0,5.449,1.42,5.449,7.52c0,6.102-3.3,7.521-5.449,7.521C80.562,281.412,77.262,279.992,77.262,273.891z"/>
					<path fill-rule="evenodd" clip-rule="evenodd" fill="#0095DA" d="M239.404,287.59h8.443v-20.375h7.674v-7.021h-22.078h-1.712
						h-6.729v9.555h-7.904v-9.555h-8.44v8.455c-1.508-5.783-5.769-9.107-12.371-9.107c-4.6,0-9.892,2.348-12.254,7.92v-7.268h-8.441
						v4.107c-1.845-3.461-5.944-4.76-10.412-4.76c-5.642,0-11.051,2.725-11.051,9.055c0,5.525,4.95,6.715,9.285,7.943
						c4.719,1.344,5.909,1.766,5.909,3.146c0,2.033-2.11,2.494-3.491,2.494c-1.574,0-3.416-0.346-4.029-1.996
						c-0.192-0.537-0.307-1.15-0.307-1.803h-8.441c0,8.748,8.978,9.861,12.047,9.861c3.952,0,8.062-0.953,10.49-3.537v2.885h8.441
						v-7.055c1.958,4.578,6.122,7.707,11.832,7.707c3.031,0,5.91-0.998,7.79-3.453l0.268,2.801h4.735h0.6h7.841v-10.822h7.904
						v10.822h8.441v-20.375h5.961V287.59L239.404,287.59z M175.591,268.48v5.088c-1.465-1.326-3.496-2.084-5.539-2.67
						c-3.837-0.998-7.827-1.535-7.942-3.453c0-1.535,1.88-1.842,3.032-1.842c0.881,0,1.763,0.191,2.493,0.691
						c0.729,0.459,1.151,1.15,0.997,2.186H175.591L175.591,268.48z M208.657,269.785v2.725h-10.605v5.871h3.723
						c-0.423,2.033-2.418,3.031-4.375,3.031c-5.103,0-6.178-4.49-6.178-7.061c0-1.881-0.193-7.98,5.602-7.98
						c1.996,0,3.685,1.42,3.991,3.414H208.657z"/>
				</g>
				<path fill-rule="evenodd" clip-rule="evenodd" fill="#4A585F" d="M128.081,11.758c11.904,0,21.555,9.65,21.555,21.554
					c0,5.15-1.57,9.039-4.469,13.17l-26.855,38.289c-3.727,5.313-5.775,12.349-1.578,18.215l28.506,39.851
					c1.697,2.372,1.596,5.297,2.316,7.908c0.491,1.779,0.531,2.878,0.531,4.896c0,11.904-8.102,21.813-20.006,21.813
					c-6.158,0-11.553-2.986-16.01-7.125l-55.916-51.906c-7.381-6.853-11.677-13.268-11.677-23.816
					c0-8.835,3.861-17.114,10.51-22.802l57.984-53.862C117.001,13.979,122.396,11.758,128.081,11.758z"/>
				<path fill-rule="evenodd" clip-rule="evenodd" fill="#363F44" d="M119.731,107.176l23.273,32.535
					c4.333,5.297,6.656,11.803,6.656,18.668c0,16.297-13.211,29.508-29.508,29.508c-7.974,0-15.207-3.162-20.518-8.305
					c-1.708-1.6-4.457-4.834-5.817-6.799c-14.214-20.516-31.64-42.426-44.896-62.565c-2.873-4.367-4.444-9.234-4.444-15.612
					c0-8.835,3.861-17.114,10.51-22.802l57.984-53.862c0.944-0.929,1.964-1.762,3.045-2.493L99.064,35.772
					c-11.681,14.005-10.67,27.6-3.021,38.293L119.731,107.176z"/>
				<path fill-rule="evenodd" clip-rule="evenodd" fill="#0BAAE2" d="M232.942,11.758c11.904,0,21.555,9.65,21.555,21.554
					c0,5.15-1.57,9.039-4.469,13.17l-26.855,38.289c-3.727,5.313-5.774,12.349-1.58,18.215l28.508,39.851l0.009,0.012
					c3.486,4.729,5.412,9.936,5.412,16.998c0,8.836-3.86,17.113-10.51,22.801l-57.984,53.861c-4.027,3.963-9.425,6.184-15.108,6.184
					c-11.905,0-21.555-9.648-21.555-21.553c0-5.15,1.57-9.039,4.469-13.17l26.855-38.289c3.728-5.313,5.775-12.349,1.579-18.214
					l-28.507-39.851l-0.009-0.013c-3.487-4.727-5.412-9.936-5.412-16.997c0-8.835,3.86-17.114,10.51-22.802l57.985-53.862
					C221.862,13.979,227.258,11.758,232.942,11.758z"/>
				<path fill-rule="evenodd" clip-rule="evenodd" fill="#0095DA" d="M224.592,107.176l25.509,35.66l0.009,0.012
					c3.486,4.729,5.412,9.936,5.412,16.998c0,8.836-3.86,17.113-10.51,22.801l-57.984,53.861c-0.945,0.93-1.964,1.762-3.044,2.494
					l16.951-20.324c11.683-14.004,10.671-27.6,3.021-38.293l-23.688-33.11l-25.508-35.659l-0.009-0.013
					c-3.487-4.727-5.412-9.936-5.412-16.997c0-8.835,3.86-17.114,10.51-22.802l57.985-53.862c0.944-0.929,1.964-1.762,3.044-2.493
					l-16.954,20.324c-11.681,14.005-10.67,27.6-3.02,38.293L224.592,107.176z"/>
			</g>
		</g>
	</g>
</svg>
