<?xml version="1.0" encoding="utf-8"?>
<!-- Generator: Adobe Illustrator 16.0.0, SVG Export Plug-In . SVG Version: 6.00 Build 0)  -->
<!DOCTYPE svg PUBLIC "-//W3C//DTD SVG 1.1//EN" "http://www.w3.org/Graphics/SVG/1.1/DTD/svg11.dtd" [
	<!ENTITY ns_extend "http://ns.adobe.com/Extensibility/1.0/">
	<!ENTITY ns_ai "http://ns.adobe.com/AdobeIllustrator/10.0/">
	<!ENTITY ns_graphs "http://ns.adobe.com/Graphs/1.0/">
	<!ENTITY ns_vars "http://ns.adobe.com/Variables/1.0/">
	<!ENTITY ns_imrep "http://ns.adobe.com/ImageReplacement/1.0/">
	<!ENTITY ns_sfw "http://ns.adobe.com/SaveForWeb/1.0/">
	<!ENTITY ns_custom "http://ns.adobe.com/GenericCustomNamespace/1.0/">
	<!ENTITY ns_adobe_xpath "http://ns.adobe.com/XPath/1.0/">
]>
<svg version="1.1" xmlns:x="&ns_extend;" xmlns:i="&ns_ai;" xmlns:graph="&ns_graphs;"
	 xmlns="http://www.w3.org/2000/svg" xmlns:xlink="http://www.w3.org/1999/xlink" x="0px" y="0px" width="300px" height="300px"
	 viewBox="0 0 300 300" enable-background="new 0 0 300 300" xml:space="preserve">
	<g i:extraneous="self">

		<g id="Layer_3" style="fill: #FFF;">
			<path d="M281.382,57.843H18.618c-3.628,0-6.569,2.94-6.569,6.569v171.176c0,3.629,2.941,6.569,6.569,6.569h262.764
				c3.628,0,6.569-2.94,6.569-6.569V64.412C287.951,60.783,285.01,57.843,281.382,57.843z M25.187,79.654L125.712,150
				L25.187,220.346V79.654z M150,150.96L35.708,70.981h228.584L150,150.96z M137.172,158.019l9.061,6.341
				c1.132,0.791,2.448,1.186,3.767,1.186c1.319,0,2.636-0.395,3.768-1.186l9.063-6.343l101.461,71.002H35.708L137.172,158.019z
				 M174.287,150l100.525-70.346v140.691L174.287,150z"/>
		</g>
	</g>

</svg>
